<?xml version="1.0" encoding="UTF-8" standalone="no"?>
<svg width="145px" height="101px" viewBox="0 0 145 101" version="1.1" xmlns="http://www.w3.org/2000/svg" xmlns:xlink="http://www.w3.org/1999/xlink">
    <!-- Generator: Sketch 41.2 (35397) - http://www.bohemiancoding.com/sketch -->
    <title>Book</title>
    <desc>Created with Sketch.</desc>
    <defs></defs>
    <g id="Playground" stroke="none" stroke-width="1" fill="none" fill-rule="evenodd">
        <g id="LV-Assessment-2" transform="translate(-295.000000, -416.000000)" fill="#000000">
            <g id="Book" transform="translate(295.000000, 416.000000)">
                <g id="Group">
                    <g id="Shape">
                        <path d="M60.4869186,71.0097333 C45.1506395,67.0825167 30.8630814,67.0825167 15.5234302,71.00805 C14.4055814,71.2942167 13.7244186,72.4641333 14.0009302,73.6222667 C14.2774419,74.7804 15.407093,75.4890833 16.5232558,75.2012333 C31.1800581,71.4490833 44.8336628,71.4490833 59.4887791,75.2012333 C59.6573837,75.2433167 59.8243023,75.2652 59.9895349,75.2652 C60.9252907,75.2652 61.7767442,74.6070167 62.0111047,73.6222667 C62.2859302,72.4641333 61.6047674,71.2959 60.4869186,71.0097333 Z"></path>
                        <path d="M60.4869186,58.5311833 C45.1489535,54.60565 30.8630814,54.60565 15.5234302,58.5311833 C14.4072674,58.81735 13.7261047,59.9872667 14.0009302,61.1470833 C14.2774419,62.3052167 15.405407,63.0122167 16.5249419,62.72605 C31.1817442,58.9739 44.8353488,58.9739 59.4887791,62.72605 C59.6573837,62.7681333 59.8243023,62.7900167 59.9895349,62.7900167 C60.9252907,62.7900167 61.7767442,62.13015 62.0111047,61.1470833 C62.2859302,59.9872667 61.6047674,58.8156667 60.4869186,58.5311833 Z"></path>
                        <path d="M60.4869186,46.0543167 C45.1489535,42.1287833 30.8613953,42.1287833 15.5234302,46.0543167 C14.4055814,46.3404833 13.7244186,47.5104 14.0009302,48.6685333 C14.2774419,49.8266667 15.407093,50.5319833 16.5232558,50.2475 C31.1783721,46.49535 44.8319767,46.49535 59.4887791,50.2475 C59.6556977,50.2912667 59.8243023,50.3114667 59.9895349,50.3114667 C60.9252907,50.3114667 61.7767442,49.6532833 62.0111047,48.6685333 C62.2859302,47.5120833 61.6047674,46.3404833 60.4869186,46.0543167 Z"></path>
                        <path d="M60.4869186,33.5791333 C45.1472674,29.6502333 30.8597093,29.6502333 15.5217442,33.5791333 C14.4038953,33.8653 13.7227326,35.0352167 13.9992442,36.19335 C14.2757558,37.3514833 15.4037209,38.0584833 16.5215698,37.7723167 C31.176686,34.0201667 44.8302907,34.0201667 59.485407,37.7723167 C59.6540116,37.8160833 59.8209302,37.8362833 59.9878488,37.8362833 C60.9236047,37.8362833 61.7733721,37.1781 62.0077326,36.19335 C62.2859302,35.0352167 61.6047674,33.8653 60.4869186,33.5791333 Z"></path>
                        <path d="M16.5232558,25.2937667 C31.1783721,21.5416167 44.8319767,21.5416167 59.487093,25.2937667 C59.6556977,25.33585 59.8226163,25.3577333 59.9878488,25.3577333 C60.9236047,25.3577333 61.7750581,24.6978667 62.0094186,23.7148 C62.2859302,22.5566667 61.6030814,21.3850667 60.4869186,21.0989 C45.1489535,17.1716833 30.8613953,17.1716833 15.5234302,21.0989 C14.4055814,21.3850667 13.7244186,22.5566667 14.0009302,23.7148 C14.2774419,24.8729333 15.405407,25.5799333 16.5232558,25.2937667 Z"></path>
                        <path d="M144.156977,37.3935667 L144.156977,12.0291 C144.156977,9.6152 142.506337,7.21476667 140.215,6.31081667 L140.122267,6.27546667 C128.808895,2.323 117.972674,0.402316667 106.996512,0.402316667 C96.0203488,0.402316667 85.1824419,2.32468333 73.8454651,6.28388333 L73.7594767,6.31755 C73.3177326,6.49261667 72.8962209,6.72323333 72.5,7.01276667 C72.102093,6.72323333 71.6772093,6.48925 71.2236628,6.31081667 L71.1309302,6.27546667 C59.8175581,2.323 48.9813372,0.402316667 38.0051744,0.402316667 C27.0290116,0.402316667 16.1911047,2.32468333 4.85412791,6.28388333 L4.76813953,6.31755 C2.49534884,7.21308333 0.844709302,9.61688333 0.844709302,12.0307833 C0.843023256,40.09195 0.843023256,68.1548 0.844709302,96.21765 C0.844709302,97.4111333 1.24598837,98.46995 2.0047093,99.2813167 C2.79546512,100.12635 3.89982558,100.59095 5.11546512,100.59095 C5.71063953,100.59095 6.30412791,100.47985 6.85209302,100.269433 C17.5180233,96.5459 27.7084884,94.7346333 38.0051744,94.7346333 C48.3018605,94.7346333 58.4923256,96.5459 69.129593,100.25765 C70.2727326,100.697 71.4816279,100.705417 72.5168605,100.299733 C73.552093,100.695317 74.7879651,100.673433 75.8417442,100.26775 C86.5093605,96.5442167 96.6998256,94.73295 106.996512,94.73295 C117.293198,94.73295 127.483663,96.5442167 138.12093,100.255967 C138.711047,100.483217 139.309593,100.596 139.903081,100.596 C142.329302,100.596 144.158663,98.71235 144.158663,96.2142833 L144.158663,37.3935667 L144.156977,37.3935667 Z M75.7186628,12.0897 C75.7540698,11.9903833 75.870407,11.8287833 75.9243605,11.78165 C86.563314,8.07663333 96.7268023,6.27546667 106.996512,6.27546667 C117.261163,6.27546667 127.421279,8.07495 138.053488,11.7766 C138.127674,11.8372 138.237267,11.99375 138.27436,12.0897 L138.272674,94.1050667 C127.625291,90.5768 117.375814,88.8598 106.994826,88.8598 C96.6138372,88.8598 86.3660465,90.5784833 75.7186628,94.1050667 C75.7169767,66.7677333 75.7169767,39.4270333 75.7186628,12.0897 Z M6.72732558,12.0897 C6.7644186,11.9903833 6.87906977,11.8287833 6.93302326,11.78165 C17.5719767,8.07663333 27.7354651,6.27546667 38.0051744,6.27546667 C48.2698256,6.27546667 58.4299419,8.07495 69.0621512,11.7766 C69.1363372,11.8372 69.2459302,11.99375 69.2813372,12.0897 L69.2813372,94.10675 C58.6322674,90.5784833 48.3844767,88.8614833 38.0034884,88.8614833 C27.6225,88.8614833 17.3747093,90.5801667 6.72732558,94.10675 C6.72563953,66.7677333 6.72563953,39.4270333 6.72732558,12.0897 Z"></path>
                        <path d="M129.478256,71.0097333 C114.140291,67.0825167 99.8544186,67.0825167 84.5147674,71.00805 C83.3969186,71.2942167 82.7157558,72.4641333 82.9905814,73.6222667 C83.267093,74.7804 84.3967442,75.4890833 85.512907,75.2012333 C100.169709,71.4490833 113.823314,71.4490833 128.47843,75.2012333 C128.647035,75.2433167 128.812267,75.2652 128.979186,75.2652 C129.916628,75.2652 130.766395,74.6070167 131.000756,73.6222667 C131.277267,72.4641333 130.594419,71.2959 129.478256,71.0097333 Z"></path>
                        <path d="M129.478256,58.5311833 C114.140291,54.60565 99.8544186,54.60565 84.5147674,58.5311833 C83.3969186,58.81735 82.7157558,59.9872667 82.9922674,61.1470833 C83.267093,62.3052167 84.3950581,63.0122167 85.512907,62.72605 C100.171395,58.9739 113.823314,58.9739 128.47843,62.72605 C128.647035,62.7681333 128.813953,62.7900167 128.979186,62.7900167 C129.916628,62.7900167 130.768081,62.13015 131.000756,61.1470833 C131.277267,59.9872667 130.594419,58.8156667 129.478256,58.5311833 Z"></path>
                        <path d="M129.478256,46.0543167 C114.138605,42.1287833 99.8527326,42.1287833 84.5147674,46.0543167 C83.3969186,46.3404833 82.7157558,47.5104 82.9905814,48.6685333 C83.267093,49.8266667 84.3967442,50.5319833 85.512907,50.2475 C100.168023,46.49535 113.821628,46.49535 128.47843,50.2475 C128.647035,50.2912667 128.813953,50.3114667 128.979186,50.3114667 C129.916628,50.3114667 130.768081,49.6532833 131.000756,48.6685333 C131.277267,47.5120833 130.594419,46.3404833 129.478256,46.0543167 Z"></path>
                        <path d="M129.478256,33.5791333 C114.140291,29.6502333 99.8527326,29.6502333 84.5130814,33.5791333 C83.3969186,33.8653 82.7157558,35.0352167 82.9922674,36.19335 C83.267093,37.3514833 84.3967442,38.0584833 85.512907,37.7723167 C100.169709,34.0201667 113.821628,34.0201667 128.47843,37.7723167 C128.647035,37.8160833 128.813953,37.8362833 128.979186,37.8362833 C129.916628,37.8362833 130.768081,37.1781 131.000756,36.19335 C131.277267,35.0352167 130.596105,33.8653 129.478256,33.5791333 Z"></path>
                        <path d="M85.512907,25.2937667 C100.169709,21.5416167 113.821628,21.5416167 128.47843,25.2937667 C128.647035,25.33585 128.813953,25.3577333 128.979186,25.3577333 C129.916628,25.3577333 130.768081,24.6978667 131.000756,23.7148 C131.277267,22.5566667 130.594419,21.3850667 129.478256,21.0989 C114.140291,17.1716833 99.8527326,17.1716833 84.5130814,21.0989 C83.3969186,21.3850667 82.7157558,22.5566667 82.9905814,23.7148 C83.267093,24.8729333 84.3967442,25.5799333 85.512907,25.2937667 Z"></path>
                    </g>
                </g>
            </g>
        </g>
    </g>
</svg>