<?xml version="1.0" encoding="UTF-8" standalone="no"?>
<svg width="100px" height="105px" viewBox="0 0 100 105" version="1.1" xmlns="http://www.w3.org/2000/svg" xmlns:xlink="http://www.w3.org/1999/xlink">
    <!-- Generator: Sketch 41.2 (35397) - http://www.bohemiancoding.com/sketch -->
    <title>Clock</title>
    <desc>Created with Sketch.</desc>
    <defs></defs>
    <g id="Playground" stroke="none" stroke-width="1" fill="none" fill-rule="evenodd">
        <g id="LV-Assessment-2" transform="translate(-1002.000000, -406.000000)" fill="#000000">
            <g id="Clock" transform="translate(1002.000000, 406.000000)">
                <g id="Group">
                    <g id="Shape">
                        <path d="M77.7,42.5110323 C76.8586207,40.8766935 74.8327586,40.2485 73.1862069,41.1148548 L51.062069,51.9684516 C50.0344828,51.6370968 48.8758621,51.5784194 47.7482759,51.9115 L32.6465517,46.2163387 C31.9,45.9074194 31.1310345,45.8798065 30.412069,46.0938065 C29.5189655,46.3578548 28.7327586,46.9912258 28.3293103,47.9145323 C27.612069,49.566129 28.3724138,51.4990323 30.0206897,52.2169677 L43.8017241,59.0218226 L43.8086207,59.0408065 C44.7034483,62.0765 47.9034483,63.8195645 50.9344828,62.923871 C52.7810345,62.3785161 54.1258621,60.9875161 54.7103448,59.3117581 L76.3275862,47.0240161 C77.7517241,46.2646613 78.4068966,44.6113387 77.9706897,43.1323226 C77.9051724,42.9165968 77.8017241,42.7146774 77.7,42.5110323 Z M50.2793103,60.8529032 C48.5293103,61.3689194 46.7103448,60.3627742 46.2,58.6300645 C45.6844828,56.878371 46.6706897,55.0628226 48.4206897,54.5450806 C50.15,54.0325161 51.9844828,55.0162258 52.5017241,56.7679194 C53.0103448,58.500629 52.0103448,60.3420645 50.2793103,60.8529032 Z"></path>
                        <path d="M99.112069,13.4812419 C99.0982759,16.2632419 98.2327586,18.8485 96.7655172,20.9867742 C91.187931,13.9489355 84.3327586,7.9603871 76.5568966,3.38527419 C78.9637931,1.2746129 82.1344828,-0.00593548387 85.5965517,0.00787096774 C93.0810345,0.035483871 99.1310345,6.06372581 99.112069,13.4812419 Z"></path>
                        <path d="M1.58448276,13.4812419 C1.59827586,16.2632419 2.4637931,18.8485 3.93103448,20.9867742 C9.50862069,13.9489355 16.3637931,7.9603871 24.1396552,3.38527419 C21.7327586,1.2746129 18.562069,-0.00593548387 15.1,0.00787096774 C7.61551724,0.035483871 1.5637931,6.06372581 1.58448276,13.4812419 Z"></path>
                        <path d="M85.6396552,88.0188226 C94.0482759,79.1947742 99.2155172,67.2349355 99.2155172,54.0687581 C99.2172414,26.8596935 77.1844828,4.82114516 50,4.82114516 C22.8327586,4.82114516 0.784482759,26.8579677 0.784482759,54.0687581 C0.784482759,67.5007097 6.15517241,79.6952581 14.8775862,88.5659032 L10.6810345,95.4466935 C8.8637931,98.4081774 9.80344828,102.265355 12.7482759,104.067097 C13.7672414,104.69529 14.8948276,104.992129 16.0224138,104.992129 C18.1206897,104.992129 20.187931,103.925581 21.362069,101.982323 L24.7913793,96.3717258 C32.1672414,100.791516 40.7775862,103.330177 50.0017241,103.330177 C59.4758621,103.330177 68.337931,100.65 75.8396552,96.0110323 L79.487931,101.982323 C80.662069,103.927306 82.7293103,104.992129 84.8431034,104.992129 C85.9551724,104.992129 87.0827586,104.693565 88.1,104.067097 C91.0448276,102.263629 91.9827586,98.4081774 90.1827586,95.4466935 L85.6396552,88.0188226 Z M71.9844828,89.6963065 C66.8327586,92.8942258 60.9293103,95.0100645 54.6189655,95.6986613 L54.6189655,93.8485968 C54.6189655,91.6378387 52.85,89.8671613 50.6413793,89.8671613 C48.4655172,89.8671613 46.6793103,91.6378387 46.6793103,93.8485968 L46.6793103,95.8229194 C40.1172414,95.3051774 33.9965517,93.2687258 28.6413793,90.0708065 C24.9758621,87.8928387 21.687931,85.1643387 18.8706897,82.0147419 C13.0448276,75.5257097 9.20862069,67.203871 8.34827586,58.0501935 L10.1327586,58.0501935 C12.3413793,58.0501935 14.1103448,56.2639839 14.1103448,54.0842903 C14.1103448,51.8735323 12.3413793,50.1028548 10.1327586,50.1028548 L8.34827586,50.1028548 C10.2431034,29.9454355 26.4655172,13.9265 46.6810345,12.3284032 L46.6810345,14.3355161 C46.6810345,16.5462742 48.4655172,18.3169516 50.6431034,18.3169516 C52.8517241,18.3169516 54.6206897,16.5462742 54.6206897,14.3355161 L54.6206897,12.4561129 C74.2258621,14.6185484 89.8051724,30.3872419 91.6534483,50.1063065 L89.5706897,50.1063065 C87.3775862,50.1063065 85.6086207,51.8769839 85.6086207,54.0877419 C85.6086207,56.2657097 87.3775862,58.0536452 89.5706897,58.0536452 L91.6534483,58.0536452 C90.8241379,66.9708871 87.1758621,75.0752742 81.6172414,81.4849194 C78.8448276,84.6811129 75.6034483,87.4562097 71.9844828,89.6963065 Z"></path>
                    </g>
                </g>
            </g>
        </g>
    </g>
</svg>