<?xml version="1.0" encoding="UTF-8" standalone="no"?>
<svg width="105px" height="122px" viewBox="0 0 105 122" version="1.1" xmlns="http://www.w3.org/2000/svg" xmlns:xlink="http://www.w3.org/1999/xlink">
    <!-- Generator: Sketch 41.2 (35397) - http://www.bohemiancoding.com/sketch -->
    <title>Decision</title>
    <desc>Created with Sketch.</desc>
    <defs></defs>
    <g id="Playground" stroke="none" stroke-width="1" fill="none" fill-rule="evenodd">
        <g id="LV-Assessment-2" transform="translate(-668.000000, -406.000000)" fill="#000000">
            <g id="Decision" transform="translate(668.000000, 406.000000)">
                <g id="Artboard-10">
                    <path d="M103.39238,68.6178822 L90.487744,57.4954081 C89.2526171,56.4344156 87.6794566,55.8511046 86.0525583,55.8508887 L60.2182282,55.8508887 L60.2182282,45.8080227 L83.9602532,45.8080227 C87.3712227,45.774013 90.1280534,43.0117233 90.1619959,39.5939993 L90.1619959,20.2238215 C90.1280534,16.8060976 87.3712227,14.0438078 83.9602532,14.0097981 L60.2182282,14.0097981 L60.2182282,3.76607476 C60.2182282,1.6861291 58.5354313,0 56.4595962,0 L48.466239,0 C46.3904039,0 44.7076071,1.6861291 44.7076071,3.76607476 L44.7076071,14.0097981 L18.7855756,14.0097981 C17.1425392,14.0079582 15.5541414,14.6008861 14.3128036,15.6794246 L1.45828237,26.8897738 C0.546181255,27.6809897 0.0244835928,28.8319143 0.0300022393,30.040723 L0.0300022393,30.040723 C0.0312789557,31.2471613 0.557371761,32.3931061 1.47081114,33.1791187 L14.3253323,44.2137177 C15.5604592,45.2747102 17.1336197,45.8580212 18.760518,45.858237 L44.657492,45.858237 L44.657492,55.9011031 L20.8528231,55.9011031 C17.4418536,55.9351128 14.6850229,58.6974025 14.6510804,62.1151264 L14.6510804,81.4601971 C14.6850229,84.8779211 17.4418536,87.6402108 20.8528231,87.6742205 L44.657492,87.6742205 L44.657492,111.14942 L35.1230957,111.14942 C32.4757156,111.090455 30.2132052,113.04831 29.8860685,115.681263 C29.7439787,117.097659 30.2085551,118.507922 31.1642344,119.561251 C32.1199138,120.61458 33.4768761,121.211977 34.8975778,121.204839 L69.7526245,121.204839 C72.4000046,121.263804 74.662515,119.305949 74.9896517,116.672996 C75.1317415,115.256601 74.6671651,113.846337 73.7114858,112.793008 C72.7558064,111.739679 71.3988441,111.142283 69.9781424,111.14942 L60.2182282,111.14942 L60.2182282,87.6742205 L86.0525583,87.6742205 C87.6794566,87.6740046 89.2526171,87.0906936 90.487744,86.0297012 L103.39238,74.907227 C104.309142,74.1183587 104.835568,72.9671003 104.833189,71.7562778 L104.833189,71.7562778 C104.831912,70.5498395 104.30582,69.4038948 103.39238,68.6178822 L103.39238,68.6178822 Z M44.1813986,36.6439074 C43.7396087,37.0869982 43.1401578,37.3359599 42.5150718,37.3359599 C41.8899858,37.3359599 41.2905349,37.0869982 40.848745,36.6439074 L35.8372357,31.6224744 C34.8355626,30.5165933 34.8766224,28.8175935 35.930542,27.7615869 C36.9844616,26.7055804 38.6801037,26.6644393 39.7837993,27.6680959 L42.5150718,30.4549913 L49.568771,23.3873243 C50.6593315,22.2971613 52.4247742,22.2971613 53.5153346,23.3873243 L53.5153346,23.3873243 C54.6033431,24.4800442 54.6033431,26.2489828 53.5153346,27.3417028 L44.1813986,36.6439074 Z M63.488238,64.4626464 C64.5918903,63.3602753 66.3784595,63.3630855 67.4786521,64.4689233 C68.5788447,65.574761 68.57604,67.364868 67.4723878,68.4672392 L64.1773205,71.7688314 L67.4723878,75.0704236 C68.57604,76.1762614 68.57604,77.9691786 67.4723877,79.0750164 C66.3687354,80.1808541 64.5793615,80.1808541 63.4757092,79.0750164 L60.1806419,75.7734242 L56.8855745,79.0750164 C56.3565113,79.6078096 55.6373389,79.9073561 54.8872352,79.9073561 C54.1371315,79.9073561 53.4179592,79.6078096 52.8888959,79.0750164 L52.8888959,79.0750164 C52.3571557,78.5449055 52.0582012,77.8243091 52.0582012,77.07272 C52.0582012,76.321131 52.3571557,75.6005345 52.8888959,75.0704236 L56.196492,71.7688314 L52.9014247,68.4672392 C51.7977724,67.3614014 51.7977724,65.5684841 52.9014247,64.4626464 C54.005077,63.3568086 55.794451,63.3568086 56.8981033,64.4626464 L60.1931706,67.7642386 L63.488238,64.4626464 Z" id="Shape"></path>
                </g>
            </g>
        </g>
    </g>
</svg>