<?xml version="1.0" encoding="UTF-8" standalone="no"?>
<svg width="205px" height="36px" viewBox="0 0 205 36" version="1.1" xmlns="http://www.w3.org/2000/svg" xmlns:xlink="http://www.w3.org/1999/xlink">
    <!-- Generator: Sketch 41.2 (35397) - http://www.bohemiancoding.com/sketch -->
    <title>Logo</title>
    <desc>Created with Sketch.</desc>
    <defs></defs>
    <g id="Symbols" stroke="none" stroke-width="1" fill="none" fill-rule="evenodd">
        <g id="Logo">
            <g id="noun_628069_cc" transform="translate(102.000000, 0.000000)" fill="#FFFFFF">
                <g id="Group">
                    <g id="Group-2">
                        <g id="Group">
                            <path d="M16.6227273,27.01875 L16.6227273,27.01875 C16.3090909,27.43125 16.4136364,27.946875 16.8318182,28.153125 C17.3545455,28.4625 17.5636364,28.771875 17.5636364,28.978125 C17.5636364,29.803125 15.1590909,30.9375 11.6045455,30.9375 C8.05,30.9375 5.64545455,29.803125 5.64545455,28.978125 C5.64545455,28.771875 5.85454545,28.4625 6.37727273,28.153125 C6.79545455,27.946875 6.79545455,27.43125 6.58636364,27.01875 L6.58636364,27.01875 C6.37727273,26.709375 5.85454545,26.60625 5.54090909,26.8125 C4.6,27.43125 4.07727273,28.153125 4.07727273,28.978125 C4.07727273,31.246875 7.84090909,32.484375 11.7090909,32.484375 C15.4727273,32.484375 19.2363636,31.246875 19.2363636,28.978125 C19.2363636,28.153125 18.7136364,27.43125 17.7727273,26.8125 C17.25,26.60625 16.8318182,26.709375 16.6227273,27.01875 Z" id="Shape"></path>
                            <path d="M11.5,0.515625 C5.22727273,0.515625 0.104545455,5.56875 0.104545455,11.75625 C0.104545455,15.778125 4.6,22.171875 8.36363636,26.915625 C8.78181818,27.43125 9.2,27.946875 9.61818182,28.359375 C10.1409091,28.875 10.7681818,29.2875 11.5,29.2875 C12.2318182,29.2875 12.9636364,28.978125 13.3818182,28.359375 C13.6954545,27.946875 14.1136364,27.43125 14.6363636,26.915625 C18.4,22.275 22.8954545,15.778125 22.8954545,11.75625 C22.8954545,5.56875 17.7727273,0.515625 11.5,0.515625 Z M11.5,15.159375 C9.09545455,15.159375 7.10909091,13.2 7.10909091,10.828125 C7.10909091,8.45625 9.09545455,6.496875 11.5,6.496875 C13.9045455,6.496875 15.8909091,8.45625 15.8909091,10.828125 C15.8909091,13.2 13.9045455,15.159375 11.5,15.159375 Z" id="Shape"></path>
                        </g>
                    </g>
                </g>
            </g>
            <g id="Group-3" transform="translate(0.000000, 4.000000)" font-size="24" font-family="Andada-Regular, Andada" fill="#FCF8F8" font-weight="normal">
                <text id="Learning">
                    <tspan x="0" y="25">Learning</tspan>
                </text>
                <text id="entures">
                    <tspan x="125" y="25">entures</tspan>
                </text>
            </g>
        </g>
    </g>
</svg>